<svg xmlns="http://www.w3.org/2000/svg" viewBox="0 0 256 256" role="img" aria-label="OMNIBOT chip icon">
  <defs>
    <linearGradient id="chipBg" x1="0" y1="0" x2="1" y2="1">
      <stop offset="0%" stop-color="#9ad0ff" />
      <stop offset="100%" stop-color="#4f86d9" />
    </linearGradient>
    <linearGradient id="chipCore" x1="0" y1="0" x2="1" y2="1">
      <stop offset="0%" stop-color="#0e223b" />
      <stop offset="100%" stop-color="#132e51" />
    </linearGradient>
  </defs>

  <rect x="44" y="44" width="168" height="168" rx="28" fill="url(#chipBg)" />
  <rect x="72" y="72" width="112" height="112" rx="18" fill="url(#chipCore)" stroke="#b8dcff" stroke-width="6"/>

  <g fill="#76b4ff">
    <rect x="16" y="72" width="24" height="10" rx="3"/>
    <rect x="16" y="100" width="24" height="10" rx="3"/>
    <rect x="16" y="128" width="24" height="10" rx="3"/>
    <rect x="16" y="156" width="24" height="10" rx="3"/>

    <rect x="216" y="72" width="24" height="10" rx="3"/>
    <rect x="216" y="100" width="24" height="10" rx="3"/>
    <rect x="216" y="128" width="24" height="10" rx="3"/>
    <rect x="216" y="156" width="24" height="10" rx="3"/>

    <rect x="72" y="16" width="10" height="24" rx="3"/>
    <rect x="100" y="16" width="10" height="24" rx="3"/>
    <rect x="128" y="16" width="10" height="24" rx="3"/>
    <rect x="156" y="16" width="10" height="24" rx="3"/>

    <rect x="72" y="216" width="10" height="24" rx="3"/>
    <rect x="100" y="216" width="10" height="24" rx="3"/>
    <rect x="128" y="216" width="10" height="24" rx="3"/>
    <rect x="156" y="216" width="10" height="24" rx="3"/>
  </g>

  <text x="128" y="138" text-anchor="middle" font-size="36" font-family="Arial, sans-serif" font-weight="700" fill="#d9eeff">O</text>
</svg>
